<svg width="32" height="32" viewBox="0 0 32 32" fill="none" xmlns="http://www.w3.org/2000/svg">
<g id="Group 43">
<rect id="Rectangle 427" x="16.9331" y="19.6267" width="3.26551" height="9.25228" rx="1.63276" transform="rotate(-45 16.9331 19.6267)" fill="#3F9FFF"/>
<path id="Subtract" fill-rule="evenodd" clip-rule="evenodd" d="M20.2043 20.2043C23.9238 16.4848 23.9238 10.4543 20.2043 6.73477C16.4848 3.01526 10.4543 3.01526 6.73477 6.73477C3.01526 10.4543 3.01526 16.4848 6.73477 20.2043C10.4543 23.9238 16.4848 23.9238 20.2043 20.2043ZM18.28 18.2801C20.9368 15.6233 20.9368 11.3158 18.28 8.65899C15.6232 6.0022 11.3157 6.0022 8.65893 8.65899C6.00214 11.3158 6.00214 15.6233 8.65893 18.2801C11.3157 20.9369 15.6232 20.9369 18.28 18.2801Z" fill="#3F9FFF"/>
</g>
</svg>
